<svg width="26" height="32" viewBox="0 0 26 32" fill="none" xmlns="http://www.w3.org/2000/svg">
<path d="M17.25 21.5L17.9147 21.8797C18.626 22.2862 19.4307 22.5 20.25 22.5C20.388 22.5 20.5 22.388 20.5 22.25V17.75C20.5 17.612 20.388 17.5 20.25 17.5C19.4307 17.5 18.626 17.7138 17.9147 18.1203L17.25 18.5V21.5ZM8.75 18.5V21.5L8.085 21.88C7.405 22.2675 6.635 22.4825 5.85 22.4975C5.815 22.5 5.7825 22.5 5.75 22.5C5.6125 22.5 5.5 22.3875 5.5 22.25V17.75C5.5 17.6125 5.6125 17.5 5.75 17.5C6.16 17.5 6.565 17.555 6.96 17.6575C7.35 17.7625 7.73 17.9175 8.085 18.12L8.6175 18.425L8.75 18.5Z" fill="#ECEAFD"/>
<path d="M8.75 18.5V21.5L8.085 21.88C7.405 22.2675 6.635 22.4825 5.85 22.4975C7.9 22.3725 8.6175 18.425 8.6175 18.425L8.75 18.5Z" fill="#C5C2FF"/>
<path d="M3.75 23.5C1.82 23.5 0.25 21.93 0.25 20C0.25 18.07 1.82 16.5 3.75 16.5C3.888 16.5 4 16.612 4 16.75C4 16.888 3.888 17 3.75 17C2.09575 17 0.75 18.3457 0.75 20C0.75 21.6543 2.09575 23 3.75 23C3.888 23 4 23.112 4 23.25C4 23.388 3.888 23.5 3.75 23.5Z" fill="#ECEAFD"/>
<path d="M3.75 21.5C2.92275 21.5 2.25 20.8273 2.25 20C2.25 19.1727 2.92275 18.5 3.75 18.5C3.888 18.5 4 18.612 4 18.75C4 18.888 3.888 19 3.75 19C3.1985 19 2.75 19.4485 2.75 20C2.75 20.5515 3.1985 21 3.75 21C3.888 21 4 21.112 4 21.25C4 21.388 3.888 21.5 3.75 21.5Z" fill="#ECEAFD"/>
<path d="M17.25 18.5V21.5L17.915 21.88C18.595 22.2675 19.365 22.4825 20.15 22.4975C18.1 22.3725 17.3825 18.425 17.3825 18.425L17.25 18.5Z" fill="#C5C2FF"/>
<path d="M22.25 23.5C22.112 23.5 22 23.388 22 23.25C22 23.112 22.112 23 22.25 23C23.9043 23 25.25 21.6543 25.25 20C25.25 18.3457 23.9043 17 22.25 17C22.112 17 22 16.888 22 16.75C22 16.612 22.112 16.5 22.25 16.5C24.18 16.5 25.75 18.07 25.75 20C25.75 21.93 24.18 23.5 22.25 23.5Z" fill="#ECEAFD"/>
<path d="M22.25 21.5C22.112 21.5 22 21.388 22 21.25C22 21.112 22.112 21 22.25 21C22.8015 21 23.25 20.5515 23.25 20C23.25 19.4485 22.8015 19 22.25 19C22.112 19 22 18.888 22 18.75C22 18.612 22.112 18.5 22.25 18.5C23.0773 18.5 23.75 19.1727 23.75 20C23.75 20.8273 23.0773 21.5 22.25 21.5Z" fill="#282E29"/>
<path d="M18 31H8L8.2825 25.25C8.2825 25.2475 8.2825 25.2475 8.2825 25.245L8.75 15.75H17.17C17.2225 15.75 17.25 15.75 17.25 15.75L18 31Z" fill="#282E29"/>
<path d="M17.17 15.75C12.75 15.75 9.235 16.02 8.2825 25.245L8.75 15.75H17.17Z" fill="#282E29"/>
<path d="M15.5 22.075V23.25C15.5 23.3875 15.3875 23.5 15.25 23.5H10.75C10.6125 23.5 10.5 23.3875 10.5 23.25V22.075C10.5 20.395 11.4125 18.8475 12.8775 18.0325C12.955 17.99 13.045 17.99 13.1225 18.0325C14.5875 18.8475 15.5 20.395 15.5 22.075Z" fill="#FFC362"/>
<path d="M13.1225 18.0325C13.045 17.99 12.955 17.99 12.8775 18.0325C12.722 18.119 12.574 18.2155 12.4313 18.318C13.8613 19.1415 14.75 20.668 14.75 22.325V23.5H15.25C15.3875 23.5 15.5 23.3875 15.5 23.25V22.075C15.5 20.395 14.5875 18.8475 13.1225 18.0325Z" fill="#282E29"/>
<path d="M18.75 13.75V15.5C18.75 15.6375 18.6375 15.75 18.5 15.75H7.5C7.3625 15.75 7.25 15.6375 7.25 15.5V13.75C7.25 13.6125 7.3625 13.5 7.5 13.5H18.5C18.6375 13.5 18.75 13.6125 18.75 13.75Z" fill="#282E29"/>
<path d="M19.7225 28.1125L18.2225 31.1125C18.1825 31.1975 18.095 31.25 18 31.25H8C7.905 31.25 7.8175 31.1975 7.7775 31.1125L6.2775 28.1125C6.2375 28.035 6.2425 27.9425 6.2875 27.8675C6.3325 27.795 6.4125 27.75 6.5 27.75H19.5C19.5875 27.75 19.6675 27.795 19.7125 27.8675C19.7575 27.9425 19.7625 28.035 19.7225 28.1125Z" fill="#282E29"/>
<path d="M19.5 28.25C19.5 28.25 10.2175 28.6975 8 31.25C7.905 31.25 7.8175 31.1975 7.7775 31.1125L6.2775 28.1125C6.2375 28.035 6.2425 27.9425 6.2875 27.8675C6.3325 27.795 6.4125 27.75 6.5 27.75H19.35C19.44 28.0475 19.5 28.25 19.5 28.25Z" fill="#ED9D3E"/>
<path d="M19.75 25.5V28C19.75 28.1375 19.6375 28.25 19.5 28.25H6.5C6.3625 28.25 6.25 28.1375 6.25 28V25.5C6.25 25.3625 6.3625 25.25 6.5 25.25H19.5C19.6375 25.25 19.75 25.3625 19.75 25.5Z" fill="#282E29"/>
<path d="M15.5 28.25H11.8075C14.8825 28.25 15.3075 25.25 15.3075 25.25L15.5 28.25ZM10.4425 28.25H6.75C9.825 28.25 10.25 25.25 10.25 25.25L10.4425 28.25ZM19.4425 28.25H15.75C18.825 28.25 19.25 25.25 19.25 25.25L19.4425 28.25Z" fill="#C5C2FF"/>
<path d="M6.75 24.5V28.25H6.5C6.3625 28.25 6.25 28.1375 6.25 28V24.5C6.25 24.3625 6.3625 24.25 6.5 24.25C6.6375 24.25 6.75 24.3625 6.75 24.5ZM19.75 24.5V28C19.75 28.1375 19.6375 28.25 19.5 28.25H19.25V24.5C19.25 24.3625 19.3625 24.25 19.5 24.25C19.6375 24.25 19.75 24.3625 19.75 24.5ZM10.75 24.5V28.25H10.25V24.5C10.25 24.3625 10.3625 24.25 10.5 24.25C10.6375 24.25 10.75 24.3625 10.75 24.5ZM15.75 24.5V28.25H15.25V24.5C15.25 24.3625 15.3625 24.25 15.5 24.25C15.6375 24.25 15.75 24.3625 15.75 24.5Z" fill="#FFC362"/>
<path d="M19.5 27.5H6.5V28.25H19.5V27.5Z" fill="#FFC362"/>
<path d="M19.25 9.945C19.25 10.51 19.1125 11.0575 18.8575 11.545C18.605 12.035 18.235 12.46 17.77 12.785C17.44 13.0175 17.075 13.195 16.6925 13.3175C16.31 13.4375 15.91 13.5 15.505 13.5H10.495C9.685 13.5 8.8925 13.25 8.23 12.785C7.765 12.46 7.395 12.035 7.1425 11.545C6.8875 11.0575 6.75 10.51 6.75 9.945C6.75 9.275 6.9425 8.635 7.2875 8.09C7.6325 7.545 8.1275 7.0975 8.7325 6.81L9.4175 6.4875C10.79 5.835 12.01 4.9025 13 3.75C13 3.75 13 3.7525 13.0025 3.755C13.9925 4.905 15.2125 5.835 16.5825 6.4875L17.2675 6.81C18.4775 7.385 19.25 8.605 19.25 9.945Z" fill="#282E29"/>
<path d="M14.8028 6.36448C14.813 6.26648 14.9235 6.21223 15.0055 6.26648C15.3683 6.50698 16.2678 7.08173 16.829 7.25123C17.512 7.45748 17.2733 8.17198 17.1498 8.45048C17.121 8.51523 17.0478 8.54423 16.9823 8.51673C16.506 8.31523 14.6865 7.47148 14.8028 6.36448Z" fill="#282E29"/>
<path d="M12.845 13.5H10.495C9.685 13.5 8.8925 13.25 8.23 12.785C7.765 12.46 7.395 12.035 7.1425 11.545C6.8875 11.0575 6.75 10.51 6.75 9.945C6.75 9.275 6.9425 8.635 7.2875 8.09C7.6325 7.545 8.1275 7.0975 8.7325 6.81L9.4175 6.4875C10.79 5.835 12.01 4.9025 13 3.75C13 3.75 13 3.7525 13.0025 3.755C13.0325 3.8425 13.4525 5.2475 10.4 7.3775C6.9525 9.7825 9.8325 13.5 12.845 13.5Z" fill="#ED9D3E"/>
<path d="M13 4.25C12.035 4.25 11.25 3.465 11.25 2.5C11.25 1.535 12.035 0.75 13 0.75C13.138 0.75 13.25 0.862 13.25 1C13.25 1.138 13.138 1.25 13 1.25C12.3108 1.25 11.75 1.81075 11.75 2.5C11.75 3.18925 12.3108 3.75 13 3.75C13.6892 3.75 14.25 3.18925 14.25 2.5C14.25 2.362 14.362 2.25 14.5 2.25C14.638 2.25 14.75 2.362 14.75 2.5C14.75 3.465 13.965 4.25 13 4.25Z" fill="#FFC362"/>
</svg>
