<svg width="32" height="32" viewBox="0 0 32 32" fill="none" xmlns="http://www.w3.org/2000/svg">
<path d="M20 19.5L18.4425 21.29L15.025 25.22L13.355 27.14V27.1425L11.33 29.47L10.15 30.8275C10.055 30.9375 9.91749 31 9.77249 31H7.83999C7.41249 31 7.18249 30.4975 7.45999 30.175L10.8525 26.23L15.025 21.38L15.745 20.5425C16.475 19.6925 17.5275 19.23 18.6025 19.23C19.0725 19.23 19.545 19.3175 20 19.5Z" fill="#924A56"/>
<path d="M15.025 25.22C16.1175 23.0225 15.025 21.38 15.025 21.38L18.335 20.875L18.4425 21.29L15.025 25.22ZM13.355 27.14V27.1425L11.33 29.47C11.71 28.52 10.8525 26.23 10.8525 26.23L12.93 26.335L13.355 27.14Z" fill="#66313C"/>
<path d="M22.7775 20.86L18.76 21.13H18.7575L6.2475 21.97C4.2025 22.295 1.955 18.8575 1.2275 14.29C0.499997 9.72248 1.57 5.75498 3.615 5.42998L19.675 1.35498L22.7775 20.86Z" fill="#26B99A"/>
<path d="M15.5075 20.8427L14 19.5L13.9397 19.8592C13.8882 20.167 13.5695 20.3525 13.2755 20.248C12.7285 20.0537 12.2122 19.8317 11.7252 19.5852C11.2842 19.362 11.408 18.6997 11.8992 18.6437C13.5727 18.453 15.4817 18.201 17.548 17.869C17.873 17.4842 17.5765 17.1042 17.255 17.1562C14.335 17.621 11.7402 17.9245 9.69674 18.1212C9.56324 18.134 9.43075 18.0935 9.328 18.0075C8.81375 17.5772 8.34575 17.117 7.91975 16.6357C7.65375 16.3352 7.82174 15.8607 8.219 15.8047C10.232 15.5205 12.8807 15.1302 15.9837 14.635C16.3105 14.2502 16.013 13.8707 15.6915 13.922C12.1432 14.4867 9.20125 14.9127 7.1435 15.1977C6.953 15.2242 6.76225 15.1395 6.65675 14.9787C6.162 14.225 5.74725 13.4497 5.4 12.6817C5.26575 12.385 5.44325 12.0415 5.7635 11.982C7.875 11.5902 11.2377 10.99 15.3787 10.3325C15.702 9.94697 15.4072 9.56872 15.085 9.61972C10.7917 10.3032 7.3485 10.9227 5.2895 11.3072C5.044 11.353 4.80574 11.2095 4.72499 10.9732C4.48724 10.279 4.30024 9.61122 4.15299 8.99422C4.29349 8.76222 4.37549 8.62672 4.51599 8.39472C6.37224 7.92447 10.7177 6.88847 16.0797 6.04272C16.4062 5.65572 16.1075 5.27872 15.7872 5.32972C10.5687 6.16022 6.32575 7.16472 4.42325 7.64447C4.137 7.71672 3.85249 7.52472 3.80725 7.23322C3.6365 6.12972 3.61525 5.42972 3.61525 5.42972C1.57 5.75497 0.499995 9.72247 1.2275 14.29C1.955 18.8575 4.2025 22.295 6.2475 21.97L18.7575 21.13C17.585 21.1297 16.5052 21.0275 15.5075 20.8427Z" fill="#3C8F6E"/>
<path d="M8.2975 21.8325L6.2475 21.97C4.2025 22.295 1.955 18.8575 1.2275 14.29C0.499997 9.72249 1.57 5.75499 3.615 5.42999L5.605 4.92499C4.825 5.27999 4.225 6.23749 3.86 7.57249C3.4025 9.23499 3.3125 11.4825 3.6975 13.8975C4.39 18.25 6.3825 21.615 8.2975 21.8325Z" fill="#518C68"/>
<path d="M8.2975 21.8325L6.2475 21.97C4.2025 22.295 1.955 18.8575 1.2275 14.29C0.499997 9.72249 1.57 5.75499 3.615 5.42999C3.615 5.42999 3.64 6.27499 3.86 7.57249C3.4025 9.23499 3.3125 11.4825 3.6975 13.8975C4.39 18.25 6.3825 21.615 8.2975 21.8325Z" fill="#30563D"/>
<path d="M26.235 20.3075L23.025 20.82C22.3125 20.9325 21.6 20.8675 20.9075 20.6425C20.745 20.59 20.5825 20.53 20.42 20.46C17.875 19.3525 15.7 16.1375 15.055 12.09C14.1975 6.70249 16.375 1.87999 19.92 1.31499L23.13 0.804993L26.235 20.3075Z" fill="#282E29"/>
<path d="M18.1817 4.11072C18.4579 4.11072 18.6817 3.88686 18.6817 3.61072C18.6817 3.33458 18.4579 3.11072 18.1817 3.11072C17.9056 3.11072 17.6817 3.33458 17.6817 3.61072C17.6817 3.88686 17.9056 4.11072 18.1817 4.11072Z" fill="#282E29"/>
<path d="M16.549 8.16773C16.8251 8.16773 17.049 7.94387 17.049 7.66772C17.049 7.39158 16.8251 7.16772 16.549 7.16772C16.2729 7.16772 16.049 7.39158 16.049 7.66772C16.049 7.94387 16.2729 8.16773 16.549 8.16773Z" fill="#282E29"/>
<path d="M20.9075 20.6425C20.745 20.59 20.5825 20.53 20.42 20.46C20.37 20.395 20.335 20.3175 20.32 20.23C20.2775 19.9575 20.4625 19.7025 20.735 19.6575C21.0075 19.615 21.265 19.8 21.3075 20.075C21.3525 20.3425 21.1725 20.5925 20.9075 20.6425Z" fill="#30563D"/>
<path d="M18.003 17.3027C18.2791 17.3027 18.503 17.0789 18.503 16.8027C18.503 16.5266 18.2791 16.3027 18.003 16.3027C17.7269 16.3027 17.503 16.5266 17.503 16.8027C17.503 17.0789 17.7269 17.3027 18.003 17.3027Z" fill="#282E29"/>
<path d="M16.5352 12.853C16.8114 12.853 17.0352 12.6291 17.0352 12.353C17.0352 12.0768 16.8114 11.853 16.5352 11.853C16.2591 11.853 16.0352 12.0768 16.0352 12.353C16.0352 12.6291 16.2591 12.853 16.5352 12.853Z" fill="#282E29"/>
<path d="M17.16 31H15.2275C15.1825 31 15.14 30.995 15.0975 30.9825C15.0025 30.9575 14.915 30.905 14.85 30.8275L5 19.5C5.455 19.3175 5.9275 19.23 6.3975 19.23C7.4725 19.23 8.525 19.6925 9.255 20.5425L17 29.5475L17.54 30.175C17.8175 30.4975 17.5875 31 17.16 31Z" fill="#282E29"/>
<path d="M17.16 31H15.2275C15.1825 31 15.14 30.995 15.0975 30.9825L14.85 30.8275C15.5575 30.8275 17 29.5475 17 29.5475L17.54 30.175C17.8175 30.4975 17.5875 31 17.16 31Z" fill="#66313C"/>
<path d="M29 19.5C29 19.5 28.9825 19.5225 28.9475 19.5625L28.87 19.6475C28.8675 19.6525 28.8625 19.6575 28.8575 19.6625L22.475 27.0025L20.205 29.615L19.15 30.8275C19.055 30.9375 18.9175 31 18.7725 31H16.84C16.4125 31 16.1825 30.4975 16.46 30.175L19.8525 26.23L23.4975 21.9925V21.99L26.5 18.5L29 19.5Z" fill="#282E29"/>
<path d="M29 19.5C29 19.5 28.9825 19.5225 28.9475 19.5625C28.93 19.585 28.905 19.6125 28.87 19.6475C28.8675 19.6525 28.8625 19.6575 28.8575 19.6625C28.34 20.2325 26.4175 22.09 23.4975 21.9925V21.99L26.5 18.5L29 19.5ZM20.205 29.615C20.505 28.1275 19.8525 26.23 19.8525 26.23L21.835 26.345L22.475 27.0025L20.205 29.615Z" fill="#66313C"/>
<path d="M31.102 9.53472C31.9593 14.9207 29.78 19.7445 26.235 20.3087C22.6898 20.873 19.121 16.9642 18.2637 11.578C17.4062 6.19197 19.5855 1.36847 23.1308 0.804221C26.676 0.239971 30.2448 4.14872 31.102 9.53472Z" fill="#ECEAFD"/>
<path d="M25.9601 18.5798C28.5509 18.1674 30.0793 14.2406 29.3739 9.8091C28.6685 5.37757 25.9965 2.1194 23.4057 2.53178C20.815 2.94415 19.2866 6.8709 19.992 11.3024C20.6974 15.734 23.3694 18.9921 25.9601 18.5798Z" fill="#C5C2FF"/>
<path d="M18.2558 20.5415L26.5397 30.174C26.8185 30.4982 26.5882 31 26.1607 31H24.228C24.0833 31 23.9458 30.9372 23.8507 30.828L14 19.5C15.4952 18.9017 17.2055 19.3205 18.2558 20.5415Z" fill="#282E29"/>
<path d="M18.1817 3.61072C18.4579 3.61072 18.6817 3.38686 18.6817 3.11072C18.6817 2.83458 18.4579 2.61072 18.1817 2.61072C17.9056 2.61072 17.6817 2.83458 17.6817 3.11072C17.6817 3.38686 17.9056 3.61072 18.1817 3.61072Z" fill="#282E29"/>
<path d="M16.549 7.66772C16.8251 7.66772 17.049 7.44387 17.049 7.16772C17.049 6.89158 16.8251 6.66772 16.549 6.66772C16.2729 6.66772 16.049 6.89158 16.049 7.16772C16.049 7.44387 16.2729 7.66772 16.549 7.66772Z" fill="#BE7B85"/>
<path d="M20.8143 20.1525C21.0904 20.1525 21.3143 19.9286 21.3143 19.6525C21.3143 19.3763 21.0904 19.1525 20.8143 19.1525C20.5381 19.1525 20.3143 19.3763 20.3143 19.6525C20.3143 19.9286 20.5381 20.1525 20.8143 20.1525Z" fill="#BE7B85"/>
<path d="M18.003 16.8027C18.2791 16.8027 18.503 16.5789 18.503 16.3027C18.503 16.0266 18.2791 15.8027 18.003 15.8027C17.7269 15.8027 17.503 16.0266 17.503 16.3027C17.503 16.5789 17.7269 16.8027 18.003 16.8027Z" fill="#282E29"/>
<path d="M16.5352 12.353C16.8114 12.353 17.0352 12.1291 17.0352 11.853C17.0352 11.5768 16.8114 11.353 16.5352 11.353C16.2591 11.353 16.0352 11.5768 16.0352 11.853C16.0352 12.1291 16.2591 12.353 16.5352 12.353Z" fill="#BE7B85"/>
</svg>
