<svg width="32" height="32" viewBox="0 0 32 32" fill="none" xmlns="http://www.w3.org/2000/svg">
<g clip-path="url(#clip0_934_373)">
<path d="M4.505 12.5L6.63275 13.1222L5.9465 11.734L5.42 11.2712L4.505 12.5Z" fill="#518C68"/>
<path d="M27.0825 26.75L12.1925 29.2775C4.755 22.75 4.99 12.0675 4.99 12.0675L5.3875 11.7525L7.63 9.98248L20.895 12.505C20.64 17.165 23.8975 22.425 25.785 25.0575C26.545 26.115 27.0825 26.75 27.0825 26.75Z" fill="#ECEAFD"/>
<path d="M25.785 25.0575L13.1933 27.4615L12.9358 27.2765C7.22525 21.9402 6.04225 12.7872 6.01025 11.351L7.63 9.98248L20.895 12.505C20.64 17.165 23.8975 22.425 25.785 25.0575Z" fill="#C5C2FF"/>
<path d="M28.08 23.8775L13.685 26.49C8.11675 22.617 6.74 14.495 6.0425 11.245L7.63 9.98248L8.8925 10.0825L19.3375 10.905L21.3925 11.0675C21.39 11.23 21.395 11.3925 21.41 11.5625C21.6725 15.01 24.9425 19.7925 26.8025 22.26C27.5575 23.2575 28.08 23.8775 28.08 23.8775Z" fill="#ECEAFD"/>
<path d="M26.8025 22.26L14.105 24.135C6.872 18.468 7.629 9.98348 7.629 9.98348C8.2165 9.69098 16.62 10.1325 19.3375 10.905C20.2175 11.155 20.935 11.395 21.41 11.5625C21.6725 15.01 24.9425 19.7925 26.8025 22.26Z" fill="#C5C2FF"/>
<path d="M7.629 9.98349C7.629 9.98349 7.22475 18.284 14.7248 23.3705L28.255 21.3717C28.255 21.3717 22.505 16.5 22.6673 11.0325C22.6673 11.0325 13.129 7.23349 7.629 9.98349Z" fill="#ECEAFD"/>
<path d="M20.617 17.8702C20.0183 19.367 18.5895 20.3335 16.977 20.3335C14.8133 20.3335 13.0543 18.5745 13.0543 16.4107C13.0543 14.7982 14.0205 13.3695 15.5175 12.7707C15.594 12.7397 15.6805 12.7582 15.7405 12.8162C15.7983 12.876 15.817 12.9627 15.786 13.0412C15.6168 13.4542 15.532 13.894 15.532 14.346C15.532 16.2805 17.1073 17.856 19.042 17.856C19.4943 17.856 19.934 17.7712 20.3468 17.602C20.4253 17.571 20.512 17.5895 20.5718 17.6475C20.6293 17.7052 20.648 17.794 20.617 17.8702Z" fill="#282E29"/>
<path d="M20.4188 14.3295L19.6358 14.898C19.5635 14.9505 19.533 15.0435 19.5605 15.1287L19.8593 16.0515C19.8883 16.1362 19.8573 16.229 19.785 16.2807C19.7128 16.3345 19.6158 16.3345 19.5413 16.2807L18.7583 15.7122C18.686 15.6597 18.588 15.6597 18.5158 15.7122L17.7328 16.2807C17.6978 16.3075 17.6543 16.32 17.611 16.32C17.5698 16.32 17.5263 16.3075 17.4893 16.2807C17.417 16.2292 17.388 16.1362 17.415 16.0515L17.7138 15.1287C17.7413 15.0437 17.711 14.9505 17.6385 14.898L16.8555 14.3295C16.7833 14.2757 16.7543 14.183 16.7813 14.0983C16.808 14.0135 16.8885 13.9558 16.9775 13.9558H17.9465C18.036 13.9558 18.1153 13.898 18.143 13.813L18.4415 12.8925C18.4675 12.8077 18.5483 12.75 18.637 12.75C18.7278 12.75 18.8063 12.8077 18.8333 12.8925L19.1338 13.8132C19.1615 13.8982 19.2408 13.9558 19.33 13.9558H20.2973C20.388 13.9558 20.4665 14.0135 20.4955 14.0983C20.522 14.1828 20.491 14.2757 20.4188 14.3295Z" fill="#282E29"/>
<path d="M22.8905 6.759C14.7227 4.09475 6.8665 5.54175 6.8665 5.54175C4.6845 6.437 4.101 8.36625 4.101 8.36625L4.505 12.5L7.629 9.9835C7.629 9.9835 11.6622 8.644 22.9137 11.0745L22.8905 6.759Z" fill="#282E29"/>
<path d="M21.745 6.41252C21.7275 7.02252 21.5875 7.61502 21.3375 8.15002C21.2525 8.33252 21.0725 8.43752 20.885 8.43752C20.815 8.43752 20.7425 8.42252 20.6725 8.39002C20.4225 8.27252 20.315 7.97502 20.4325 7.72502C20.6575 7.24752 20.765 6.70502 20.7475 6.15002C21.08 6.23002 21.41 6.31752 21.745 6.41252Z" fill="#F86AA5"/>
<path d="M21.745 6.41247C21.7275 7.02247 21.5875 7.61497 21.3375 8.14997C21.2525 8.33247 21.0725 8.43747 20.885 8.43747C20.815 8.43747 20.7425 8.42247 20.6725 8.38997C20.4225 8.27247 20.315 7.97497 20.4325 7.72497C20.6575 7.24747 20.765 6.70497 20.7475 6.14997C20.74 5.87497 20.7025 5.59247 20.635 5.31497C20.21 3.57247 18.72 2.43747 17.3125 2.77997C16.3175 3.02497 15.5825 3.97497 15.445 5.20247C15.4425 5.22997 15.435 5.25997 15.4275 5.28497C15.095 5.25747 14.77 5.23497 14.4525 5.21747C14.445 5.17747 14.445 5.13497 14.45 5.09247C14.6375 3.44247 15.6675 2.15247 17.075 1.80997C19.0175 1.33497 21.05 2.79997 21.6075 5.07747C21.715 5.52247 21.7625 5.97247 21.745 6.41247ZM11.3907 7.74997C11.3195 7.74997 11.2472 7.73472 11.1785 7.70247C10.9285 7.58497 10.8212 7.28722 10.9387 7.03722C11.2745 6.32272 11.346 5.46622 11.1405 4.62572C10.9302 3.76622 10.4577 3.02922 9.81 2.55072C9.19 2.09247 8.48225 1.92972 7.8185 2.09247C6.82225 2.33622 6.08875 3.28722 5.94975 4.51547C5.9185 4.78972 5.67125 4.98722 5.39675 4.95597C5.1225 4.92497 4.92525 4.67722 4.95625 4.40297C5.143 2.75372 6.17325 1.46547 7.58125 1.12097C8.539 0.886972 9.5415 1.10897 10.4045 1.74622C11.24 2.36322 11.8465 3.30147 12.1122 4.38797C12.372 5.44972 12.2767 6.54147 11.844 7.46222C11.7585 7.64372 11.5787 7.74997 11.3907 7.74997Z" fill="#282E29"/>
<path d="M7.63 9.98248L4.505 12.5L4.1 8.36498C4.1 8.36498 4.685 6.43748 6.8675 5.54248L7.63 9.98248Z" fill="#282E29"/>
<path d="M31.25 4.5C31.25 4.615 31.17 4.715 31.06 4.7425L29.89 5.0275C29.235 5.185 28.725 5.715 28.59 6.375L28.245 8.05C28.22 8.1675 28.1175 8.25 28 8.25C27.8825 8.25 27.78 8.1675 27.755 8.05L27.41 6.375C27.275 5.715 26.765 5.185 26.11 5.0275L24.94 4.7425C24.83 4.715 24.75 4.615 24.75 4.5C24.75 4.385 24.83 4.285 24.94 4.2575L26.11 3.9725C26.765 3.815 27.275 3.285 27.41 2.625L27.755 0.95C27.78 0.8325 27.8825 0.75 28 0.75C28.1175 0.75 28.22 0.8325 28.245 0.95L28.59 2.625C28.725 3.285 29.235 3.815 29.89 3.9725L31.06 4.2575C31.17 4.285 31.25 4.385 31.25 4.5ZM6.75 27.32C6.75 27.4325 6.6725 27.5325 6.565 27.5625L5.8875 27.74C5.055 27.9625 4.4125 28.6525 4.2525 29.5L3.995 30.865C3.9725 30.985 3.87 31.07 3.75 31.07C3.63 31.07 3.5275 30.985 3.505 30.865L3.2475 29.5C3.0875 28.6525 2.445 27.9625 1.6125 27.74L0.935 27.5625C0.8275 27.5325 0.75 27.4325 0.75 27.32C0.75 27.2075 0.8275 27.1075 0.935 27.0775L1.6125 26.9C2.445 26.6775 3.0875 25.9875 3.2475 25.14L3.505 23.7725C3.5275 23.655 3.63 23.57 3.75 23.57C3.87 23.57 3.9725 23.655 3.995 23.7725L4.2525 25.14C4.4125 25.9875 5.055 26.6775 5.8875 26.9L6.565 27.0775C6.6725 27.1075 6.75 27.2075 6.75 27.32Z" fill="#282E29"/>
</g>
<defs>
<clipPath id="clip0_934_373">
<rect width="32" height="32" fill="white"/>
</clipPath>
</defs>
</svg>
