<svg width="32" height="32" viewBox="0 0 32 32" fill="none" xmlns="http://www.w3.org/2000/svg">
<path d="M26.4389 7.46385C25.9589 8.7698 24.6011 9.65196 23.0789 9.40548C21.8205 9.20223 20.8 8.17737 20.5967 6.91466C20.3546 5.40115 21.2367 4.05196 22.5384 3.57196C22.6681 3.52439 22.7719 3.67575 22.6897 3.78818C22.3913 4.20331 22.214 4.71358 22.214 5.26277C22.214 6.65521 23.3427 7.78818 24.7394 7.78818C25.293 7.78818 25.8032 7.61088 26.2184 7.30818C26.3308 7.23466 26.4822 7.33845 26.4389 7.46385Z" fill="#CCCCCC"/>
<path d="M23.5719 8.85626C22.4259 8.70923 21.4616 7.87896 21.0984 6.78059C20.8346 5.97626 20.9384 5.2368 21.2281 4.5968C20.8519 5.17626 20.6573 5.88113 20.7568 6.64653C20.9384 8.00005 22.0497 9.09842 23.4032 9.24977C24.7741 9.40545 25.9805 8.64437 26.5081 7.50275C25.9027 8.4368 24.8 9.01626 23.5719 8.85626Z" fill="#B3B3B3"/>
<path d="M15.4897 12.2941C13.28 12.5492 11.4638 11.4465 10.7243 10.3049L11.8227 8.666C11.987 8.93411 12.1816 9.20654 12.4194 9.44438C12.4194 9.4487 12.4194 9.4487 12.4238 9.45303C12.7049 9.75141 13.0551 10.0109 13.4746 10.1968C14.067 10.4563 14.6811 10.5774 15.2173 10.5946L15.4897 12.2941Z" fill="#E6E6E6"/>
<path d="M12.653 11.6584C11.6627 11.1265 11.36 9.84654 11.9827 8.90816C11.9265 8.826 11.8703 8.74816 11.8184 8.666L10.72 10.3049C11.4551 11.4465 13.2713 12.5536 15.4854 12.2941V12.2855C14.4086 12.3417 13.4357 12.0779 12.653 11.6584Z" fill="#CCCCCC"/>
<path d="M21.3795 29.613C21.3276 29.613 8.45404 29.6174 8.40215 29.6174C8.40215 29.6174 7.66702 29.6649 7.65405 29.0552C7.65405 29.0552 9.44864 28.5147 9.33188 25.4963L8.41513 15.4422C8.40648 15.3255 8.40215 15.1871 8.40648 15.0271C8.44107 13.4574 9.11134 11.9612 10.2097 10.8325L10.72 10.279C10.7243 10.2833 10.7286 10.292 10.733 10.2963C11.4724 11.4379 13.2886 12.5406 15.4984 12.2855L15.6108 13.0033L16.8822 16.5406L20.9557 15.4163L21.3059 16.1817L22.093 17.9157L22.4692 18.7417C22.4692 18.7417 18.8886 20.3374 16.8173 20.666C16.8259 20.8606 16.8346 21.1157 16.8389 21.159C16.8951 21.8768 17.4832 22.452 18.1924 22.5903C19.68 22.893 24.1124 23.9222 24.294 25.8509C24.4584 27.7147 23.6281 29.5309 21.3795 29.613Z" fill="#417360"/>
<path d="M23.6238 28.5622C23.1481 29.1719 22.413 29.5784 21.3794 29.6173C21.3276 29.6173 8.45404 29.6217 8.40215 29.6217C8.40215 29.6217 7.66702 29.6692 7.65405 29.0595C7.65405 29.0595 9.44864 28.519 9.33188 25.5006L8.41513 15.4465C8.40648 15.3298 8.40215 15.1914 8.40648 15.0314C8.44107 13.4617 9.11134 11.9654 10.2097 10.8368L10.72 10.2833C10.7243 10.2876 10.7286 10.2963 10.733 10.3006C10.7805 10.3741 10.8367 10.4519 10.893 10.5254C10.0713 11.5719 9.58269 12.8519 9.55242 14.1881C9.5481 14.3438 9.55242 14.4822 9.56107 14.6033L10.4778 24.6573C10.534 26.093 10.3265 27.0963 10.093 27.7536C9.91567 28.2552 10.2876 28.7741 10.8151 28.7741C14.0713 28.7741 22.4865 28.7698 22.5297 28.7698C22.9362 28.7611 23.3081 28.6876 23.6238 28.5622Z" fill="#709484"/>
<path d="M8.35459 29.8379C8.22919 29.8379 7.90054 29.8163 7.66702 29.6001C7.52 29.466 7.44216 29.2801 7.43784 29.0595C7.43784 28.9601 7.49838 28.8736 7.59351 28.8476C7.65838 28.826 9.22378 28.3028 9.11567 25.5092L8.19892 15.4682C8.19027 15.3428 8.18594 15.1914 8.19027 15.0271C8.22486 13.4314 8.88648 11.8876 10.0541 10.6898L10.56 10.1406C10.5989 10.0974 10.6551 10.0714 10.7157 10.0714C10.7719 10.0714 10.8324 10.093 10.8757 10.1363C10.8843 10.1449 10.9016 10.1665 10.9103 10.1795C11.6238 11.2736 13.3492 12.3287 15.4768 12.0822C15.5935 12.0692 15.6973 12.1514 15.7189 12.2638L15.8314 12.9817L17.0249 16.2855L20.9038 15.2174C21.0076 15.1914 21.1157 15.239 21.1589 15.3384L22.6681 18.6638C22.6941 18.7157 22.6941 18.7763 22.6724 18.8325C22.6508 18.8844 22.6119 18.932 22.5557 18.9536C22.413 19.0184 19.1351 20.4714 17.0422 20.8606V20.8995C17.0465 21.0163 17.0508 21.1201 17.0551 21.1503C17.1027 21.7471 17.5957 22.266 18.2357 22.3914C20.5016 22.8541 24.333 23.9179 24.5103 25.8465C24.6227 27.0444 24.333 28.1038 23.6973 28.8303C23.1481 29.453 22.3524 29.8033 21.3924 29.8379C21.3881 29.8379 21.3881 29.8379 21.3838 29.8379H8.39784C8.39351 29.8379 8.37621 29.8379 8.35459 29.8379ZM7.89621 29.1936C7.90919 29.2282 7.93081 29.2584 7.96108 29.2844C8.08648 29.3968 8.32 29.4098 8.38919 29.4055L21.3795 29.4011C22.227 29.3709 22.8973 29.0811 23.3686 28.5406C23.9265 27.9092 24.173 26.9665 24.0735 25.8855C23.9654 24.7006 21.747 23.5547 18.1492 22.8195C17.3146 22.6552 16.6832 21.9849 16.6227 21.1892C16.6184 21.1676 16.6141 21.0509 16.6097 20.9168L16.6011 20.6876C16.5968 20.5752 16.6746 20.4801 16.7827 20.4628C18.5254 20.186 21.3968 18.9795 22.1795 18.6422L20.8389 15.6844L16.9427 16.7568C16.8346 16.7871 16.7178 16.7265 16.6789 16.6184L15.4076 13.0811L15.3168 12.5276C13.2368 12.6963 11.52 11.7103 10.6941 10.6292L10.3654 10.9838C9.27135 12.1082 8.65297 13.5438 8.61838 15.0314C8.61405 15.1828 8.61838 15.3125 8.62703 15.4249L9.54378 25.4747C9.64324 28.0952 8.38054 28.9601 7.89621 29.1936Z" fill="#282E29"/>
<path d="M12.0476 26.4952C9.62163 26.4952 8.92541 25.7903 8.89082 25.5654C8.87352 25.4444 8.95568 25.3363 9.07676 25.319C9.16757 25.306 9.25838 25.3536 9.30163 25.4314C9.36649 25.5092 10.2141 26.4087 14.1319 25.9157C14.8454 25.8249 15.693 25.7514 16.5838 25.8898C16.7049 25.9071 16.7827 26.0195 16.7654 26.1363C16.7481 26.2573 16.627 26.3352 16.5189 26.3179C15.68 26.1925 14.867 26.2617 14.1881 26.3481C13.3535 26.4519 12.6487 26.4952 12.0476 26.4952Z" fill="#282E29"/>
<path d="M16.0692 20.9514C12.9946 20.9514 11.5286 17.9287 10.9146 16.026C10.8757 15.9136 10.9405 15.7882 11.053 15.7536C11.1654 15.7146 11.2908 15.7795 11.3254 15.8919C11.9481 17.8163 13.4919 20.9644 16.774 20.4584C16.8951 20.4411 17.0032 20.5233 17.0205 20.6401C17.0378 20.7611 16.9557 20.8692 16.8389 20.8865C16.5751 20.9298 16.3157 20.9514 16.0692 20.9514Z" fill="#282E29"/>
<path d="M22.1665 18.1882L21.3016 16.1903C21.9114 15.7838 22.2746 15.2476 22.2314 14.4649C22.2227 14.266 22.1924 14.0541 22.253 13.8682C22.3179 13.6779 22.5254 13.5179 22.7157 13.6C22.8281 13.6433 22.8973 13.7644 22.9449 13.8768C23.1092 14.2617 23.1827 14.6768 23.1524 15.0963C23.7146 14.9146 24.9297 12.8952 25.0768 12.839C25.2065 12.7828 25.3665 12.8865 25.453 13.0076C26.1319 13.9849 25.9676 16.9644 22.1665 18.1882Z" fill="#EFD092"/>
<path d="M22.1665 18.4087C22.08 18.4087 22.0022 18.3568 21.9676 18.279L21.1027 16.2811C21.0594 16.186 21.094 16.0736 21.1805 16.013C21.7816 15.6109 22.0454 15.1265 22.0151 14.4822L22.0108 14.3698C21.9978 14.1968 21.9849 13.9979 22.0497 13.8076C22.1103 13.6303 22.24 13.4876 22.4 13.4141C22.534 13.3536 22.6767 13.3536 22.8022 13.4055C23.0184 13.4876 23.1178 13.7211 23.1481 13.799C23.2692 14.08 23.347 14.3827 23.373 14.6855C23.7189 14.3395 24.1989 13.6692 24.4584 13.2973C24.8346 12.7698 24.9038 12.679 25.0076 12.6444C25.2324 12.5449 25.4962 12.6963 25.6346 12.8952C25.9632 13.3622 26.1405 14.2963 25.7946 15.3211C25.5222 16.1298 24.7005 17.6044 22.2357 18.4C22.2097 18.4044 22.1881 18.4087 22.1665 18.4087ZM21.5697 16.2682L22.2876 17.92C24.4238 17.1719 25.1416 15.8876 25.3838 15.1784C25.6778 14.3006 25.5351 13.5049 25.2757 13.1373C25.2454 13.0898 25.2022 13.0595 25.1762 13.0509C25.1027 13.133 24.9513 13.3492 24.813 13.5438C24.1859 14.4303 23.6324 15.1698 23.2259 15.3038C23.1567 15.3255 23.0832 15.3125 23.0227 15.2692C22.9665 15.226 22.9362 15.1525 22.9405 15.0833C22.9665 14.7071 22.9016 14.3222 22.7503 13.9676C22.694 13.8336 22.6508 13.8119 22.6422 13.8076C22.6292 13.8033 22.6119 13.7946 22.5816 13.8119C22.534 13.8336 22.4822 13.8898 22.4649 13.946C22.4303 14.0541 22.4389 14.1968 22.4476 14.3438L22.4519 14.4606C22.4865 15.2044 22.1967 15.7968 21.5697 16.2682Z" fill="#282E29"/>
<path d="M23.5762 9.66492C23.3989 9.66492 23.2216 9.65194 23.0443 9.62167C21.6908 9.40113 20.5967 8.30276 20.3849 6.95357C20.1384 5.40978 21.0162 3.90492 22.4649 3.37303C22.6076 3.32113 22.7719 3.3687 22.8627 3.48978C22.9578 3.61519 22.9622 3.78816 22.867 3.91789C22.5816 4.3114 22.4303 4.77843 22.4303 5.26708C22.4303 6.53843 23.4681 7.57627 24.7394 7.57627C25.2281 7.57627 25.6951 7.42492 26.093 7.13951C26.2227 7.04438 26.3957 7.04438 26.5211 7.14384C26.6465 7.23897 26.694 7.39897 26.6378 7.54167C26.1665 8.83032 24.9297 9.66492 23.5762 9.66492ZM22.374 3.8833C21.2627 4.41519 20.6184 5.63465 20.8173 6.88438C21.0032 8.05194 21.9503 9.0033 23.1178 9.19357C24.3719 9.39681 25.6 8.74816 26.1319 7.63248C25.7124 7.87897 25.2367 8.0087 24.7438 8.0087C23.2303 8.0087 21.9978 6.77627 21.9978 5.26276C21.9978 4.77411 22.1276 4.30275 22.374 3.8833Z" fill="#282E29"/>
<path d="M14.8454 12.5492C12.8432 12.5492 11.2389 11.4984 10.5427 10.4217C10.4951 10.3482 10.4951 10.253 10.5427 10.1838L11.6411 8.54492C11.68 8.48438 11.7492 8.45411 11.827 8.44978C11.9005 8.44978 11.9697 8.4887 12.0086 8.55357C12.1946 8.86059 12.3762 9.09411 12.5751 9.29303C12.5838 9.30167 12.5924 9.31465 12.6011 9.3233C12.8778 9.61303 13.2022 9.83789 13.5654 10.0022C14.2184 10.2919 14.8281 10.3655 15.2259 10.3784C15.3297 10.3828 15.4162 10.4563 15.4335 10.5601L15.7103 12.2595C15.7189 12.3201 15.7059 12.3806 15.6714 12.4238C15.6368 12.4714 15.5805 12.5017 15.5243 12.5103C15.2908 12.5363 15.0659 12.5492 14.8454 12.5492ZM10.9881 10.3049C11.7103 11.3082 13.293 12.2509 15.2389 12.0995L15.027 10.8065C14.5989 10.7763 14.0108 10.6768 13.3838 10.4001C12.9557 10.2098 12.5795 9.94167 12.2638 9.60438C12.2595 9.59573 12.2508 9.5914 12.2465 9.58276C12.0995 9.4314 11.9568 9.26276 11.8184 9.06384L10.9881 10.3049Z" fill="#282E29"/>
<path d="M9.70378 26.6595C9.63026 27.0487 9.04215 29.7558 5.88972 29.6087C5.7081 29.6001 5.28432 28.8952 5.50053 28.7612C6.46486 28.1687 7.08324 27.732 7.25188 27.1914C7.38594 26.7503 7.37729 26.2876 7.38161 25.8249C7.38161 25.3666 7.39026 24.8909 7.56756 24.4758C7.74486 24.052 8.1254 23.6801 8.57945 23.6455C8.99891 23.6109 9.41837 23.8487 9.62594 24.2163C10.0497 24.9731 9.78594 26.2444 9.70378 26.6595Z" fill="#EDBC74"/>
<path d="M6.13621 29.8336C6.05405 29.8336 5.96756 29.8336 5.88107 29.8292C5.57405 29.8163 5.41837 29.306 5.37945 29.1546C5.26702 28.7136 5.39243 28.5276 5.51783 28.4498C6.47351 27.866 6.90594 27.5849 7.04432 27.1309C7.15675 26.7633 7.15675 26.3698 7.16107 25.9546V25.8249C7.16107 25.3233 7.17837 24.839 7.36432 24.3936C7.59351 23.8487 8.06053 23.4725 8.55783 23.4336C9.05513 23.3946 9.56107 23.6671 9.81189 24.1168C10.2573 24.9168 10.0151 26.1838 9.92432 26.6595H9.70378L9.91567 26.6984C9.82053 27.2346 9.16756 29.8336 6.13621 29.8336ZM5.95459 29.3968C8.80864 29.4919 9.40107 27.1049 9.49621 26.6206C9.59134 26.1363 9.50486 26.5773 9.50486 26.5773C9.58702 26.1449 9.81188 24.9903 9.43999 24.3287C9.27134 24.0303 8.92972 23.8357 8.60107 23.866C8.21621 23.8963 7.90918 24.2379 7.7708 24.5622C7.61513 24.9298 7.60216 25.3709 7.60216 25.8249V25.9546C7.59783 26.3827 7.59783 26.8281 7.46378 27.2563C7.26918 27.8833 6.70702 28.2336 5.77297 28.8C5.74702 28.9298 5.86378 29.2844 5.95459 29.3968Z" fill="#282E29"/>
<path d="M16.5881 4.93413C16.5881 4.93413 15.853 4.30711 15.0357 4.82602C14.2184 5.34062 14.5686 6.88008 14.0065 7.42494C13.4486 7.96116 13.4357 6.74602 12.5881 7.02711C11.7751 7.30386 12.3719 9.29305 12.4151 9.4444C12.1773 9.20657 11.9827 8.93413 11.8184 8.6617C11.187 7.59359 11.0703 6.44765 11.0703 6.44765L15.7492 3.00116H15.7535C16.7567 3.27792 17.6259 3.85738 16.5881 4.93413Z" fill="#808080"/>
<path d="M12.7481 5.3406C12.7308 5.31033 12.7092 5.28006 12.6962 5.24979L11.0746 6.4433C11.0746 6.4433 11.1914 7.58925 11.8227 8.65735C11.987 8.92979 12.1773 9.1979 12.4195 9.44006C12.4022 9.39249 11.0746 6.84546 12.7481 5.3406Z" fill="#666666"/>
<path d="M17.1849 7.98274L16.5881 8.29842C16.5881 8.29842 16.6962 9.04652 16.7784 9.90706C16.8173 10.3438 16.1297 10.6206 15.213 10.5903C14.6724 10.573 13.267 10.5168 12.4195 9.44869C12.4151 9.44436 12.4151 9.44436 12.4151 9.44004C12.3719 9.28869 11.7751 7.2995 12.5881 7.02274C13.4314 6.74598 13.4443 7.95679 14.0022 7.4249C14.5687 6.88004 14.2141 5.34058 15.0357 4.82598C15.8487 4.30706 16.5881 4.93409 16.5881 4.93409V4.93842L16.8692 6.44761L17.3449 7.50707C17.4314 7.68869 17.3578 7.89193 17.1849 7.98274Z" fill="#EFD092"/>
<path d="M15.347 10.8109C15.2995 10.8109 15.2519 10.8109 15.2043 10.8109C14.6984 10.7936 13.1632 10.746 12.2465 9.58709C12.2378 9.57412 12.2249 9.56114 12.2205 9.54384C12.2162 9.53087 12.2076 9.51357 12.2032 9.5006C11.9481 8.61411 11.654 7.10925 12.5189 6.8152C13.0854 6.62925 13.3924 6.9752 13.574 7.18276C13.6259 7.23898 13.7081 7.33411 13.7427 7.34276C13.7427 7.34276 13.7773 7.33844 13.8508 7.26493C14.0497 7.07466 14.1146 6.66817 14.1795 6.24438C14.2746 5.65195 14.3784 4.97736 14.9146 4.64006C15.667 4.16438 16.4281 4.51466 16.7265 4.76547C16.774 4.80871 16.8043 4.86925 16.8043 4.92979L17.0767 6.37844L17.5395 7.41195C17.6692 7.68871 17.5567 8.02168 17.2843 8.16871L17.0724 8.28114C16.9211 8.3633 16.8389 8.5233 16.8605 8.69195C16.8995 8.99033 16.9513 9.42276 16.9946 9.88114C17.0119 10.0584 16.947 10.2271 16.8173 10.3698C16.5578 10.6509 16.013 10.8109 15.347 10.8109ZM12.614 9.34493C13.4097 10.3136 14.7243 10.3568 15.2216 10.3741C15.9308 10.4001 16.3589 10.2271 16.5016 10.0757C16.5622 10.0109 16.5665 9.95898 16.5622 9.92871C16.5189 9.47466 16.467 9.05087 16.4281 8.75682C16.3849 8.40655 16.5578 8.07357 16.8692 7.90493L17.0811 7.79249C17.1503 7.75357 17.1805 7.67141 17.1459 7.60222L16.6703 6.54276C16.6616 6.52547 16.6573 6.51249 16.653 6.4952L16.3892 5.05952C16.2205 4.94276 15.7059 4.65736 15.1524 5.01195C14.7805 5.24547 14.6984 5.79033 14.6119 6.3179C14.534 6.81952 14.4605 7.29087 14.1535 7.58493C14.0065 7.7233 13.8811 7.79249 13.7254 7.78384C13.5135 7.7752 13.3708 7.6152 13.2497 7.47682C13.0594 7.2606 12.9384 7.14384 12.6573 7.23466C12.2508 7.37303 12.3416 8.38925 12.614 9.34493Z" fill="#282E29"/>
<path d="M12.4108 9.66061C12.3546 9.66061 12.3027 9.63899 12.2594 9.59575C12.0389 9.37521 11.84 9.11142 11.6324 8.77413C10.9838 7.67142 10.8627 6.51683 10.8584 6.46494C10.8497 6.3871 10.8843 6.31359 10.9448 6.26602L15.6238 2.81953C15.6757 2.78061 15.7535 2.76764 15.8184 2.78494C16.6443 3.01413 17.1243 3.3644 17.2454 3.81413C17.3492 4.19899 17.1805 4.6271 16.7438 5.08115C16.6659 5.16332 16.5362 5.17196 16.4454 5.09845C16.4151 5.07683 15.814 4.58386 15.1481 5.00764C14.7805 5.24115 14.694 5.78602 14.6076 6.31359C14.5297 6.81521 14.4562 7.28656 14.1492 7.58061C14.0021 7.72332 13.8508 7.78818 13.7167 7.77953C13.5048 7.77088 13.3621 7.61088 13.2411 7.47251C13.0508 7.25629 12.9297 7.13953 12.6486 7.23034C12.2335 7.37305 12.3373 8.44115 12.614 9.37521C12.64 9.47034 12.6011 9.57413 12.5189 9.62602C12.4886 9.64764 12.4497 9.66061 12.4108 9.66061ZM11.3081 6.54278C11.3557 6.85413 11.52 7.70602 11.987 8.51034C11.8876 7.79683 11.9308 7.01845 12.5189 6.81953C13.0811 6.63359 13.3881 6.97953 13.574 7.1871C13.6259 7.24332 13.7081 7.34278 13.7427 7.3471C13.7427 7.3471 13.7773 7.34277 13.8551 7.26926C14.054 7.07899 14.1189 6.67683 14.1838 6.24872C14.2789 5.65629 14.3827 4.98169 14.9189 4.6444C15.5546 4.24223 16.1946 4.42818 16.5578 4.6444C16.7913 4.36764 16.8821 4.1298 16.8259 3.93088C16.7524 3.65845 16.3892 3.41196 15.7967 3.23467L11.3081 6.54278Z" fill="#282E29"/>
<path d="M16.5578 3.2736L16.5016 3.30819H16.4973L11.1265 6.76333C10.3438 5.47468 10.7286 3.85306 12.1081 2.96224C13.4962 2.07576 15.3859 2.23576 16.5578 3.2736Z" fill="#F5C129"/>
<path d="M13.2929 5.10711C12.2292 5.79036 10.7459 4.82603 11.2605 3.76225C11.2648 3.7536 11.2692 3.74495 11.2735 3.7363C10.6119 4.63144 10.5384 5.79036 11.1265 6.759L16.4973 3.30387H16.5016L16.5578 3.26927C16.4973 3.21738 16.4281 3.17414 16.3632 3.12657L13.2929 5.10711Z" fill="#E8B128"/>
<path d="M11.1265 6.97952C11.1092 6.97952 11.0919 6.97952 11.0789 6.97519C11.0227 6.96222 10.9708 6.92763 10.9405 6.87574C10.0886 5.47465 10.5384 3.71465 11.9913 2.77628C13.4486 1.84222 15.4335 1.98492 16.7005 3.10925C16.7524 3.15249 16.7784 3.22168 16.774 3.29087C16.7697 3.36006 16.7308 3.4206 16.6746 3.45952L16.6184 3.49411C16.6097 3.49844 16.5967 3.50709 16.5881 3.51141L11.2432 6.94492C11.2086 6.97087 11.1697 6.97952 11.1265 6.97952ZM14.1232 2.60763C13.4573 2.60763 12.7913 2.78492 12.2292 3.14384C11.027 3.9179 10.6162 5.28438 11.2043 6.45628L16.1816 3.25195C15.5935 2.82384 14.8627 2.60763 14.1232 2.60763Z" fill="#282E29"/>
</svg>
