<svg width="32" height="32" viewBox="0 0 32 32" fill="none" xmlns="http://www.w3.org/2000/svg">
<path d="M14.4625 6.5375C14.3985 6.5375 14.3345 6.513 14.2858 6.46425C14.188 6.3665 14.188 6.2085 14.2858 6.11075L15.7033 4.69325C15.801 4.5955 15.959 4.5955 16.0568 4.69325C16.1545 4.791 16.1545 4.949 16.0568 5.04675L14.6393 6.46425C14.5903 6.513 14.5263 6.5375 14.4625 6.5375Z" fill="#518C68"/>
<path d="M15.0022 22.786L15.045 22.7975C15.293 22.863 15.504 23.0057 15.6522 23.1995C15.8032 23.3935 15.889 23.6327 15.889 23.8895C15.889 24.5282 15.3645 25.0357 14.7257 25.0185C13.8732 24.9985 12.921 24.9157 11.8975 24.7277C11.0565 24.5737 10.2922 24.3742 9.6165 24.1575C9.45975 23.978 9.16025 23.593 9.04625 23.017C8.87525 22.1645 9.22575 21.4917 9.33125 21.3062" fill="#FCAF9F"/>
<path d="M9.6165 18.74C9.484 18.877 9.14225 19.2672 9.04625 19.8805C8.9325 20.6075 9.24075 21.1565 9.33125 21.306C10.21 21.6055 11.1615 21.8957 12.1825 22.1612C13.1815 22.421 14.1338 22.6277 15.0295 22.7922C15.5135 22.9152 16.0143 22.641 16.17 22.1737C16.3315 21.6892 16.0808 21.1637 15.6028 20.9845L9.6165 18.74Z" fill="#FCAF9F"/>
<path d="M12.8298 17.2233H12.8325L16.3338 19.202C16.6445 19.376 16.827 19.7038 16.827 20.043C16.827 20.1485 16.81 20.2513 16.7758 20.3538C16.6048 20.8728 16.0315 21.1463 15.5185 20.9525L9.61675 18.74C9.5455 18.5405 9.32025 17.8363 9.61675 17.0293C9.83925 16.419 10.2498 16.0598 10.4465 15.9088" fill="#FCAF9F"/>
<path d="M16.75 12.125C16.75 13.02 16.02 13.75 15.125 13.75C14.23 13.75 13.5 13.02 13.5 12.125C13.5 11.5475 13.805 11.0375 14.265 10.75C13.805 10.4625 13.5 9.9525 13.5 9.375C13.5 9.145 13.55 8.925 13.635 8.7275C13.55 8.74 13.465 8.75 13.375 8.75C12.6075 8.75 11.965 8.215 11.795 7.5C11.5 7.8075 11.085 8 10.625 8C10.045 8 9.5375 7.695 9.25 7.2375C8.9625 7.695 8.455 8 7.875 8C7.5375 8 7.2225 7.895 6.9625 7.72C6.885 8.085 6.68 8.405 6.4 8.635C6.12 8.8625 5.765 9 5.375 9C5.455 9.1925 5.5 9.4025 5.5 9.625C5.5 10.4025 4.95 11.055 4.2175 11.2125C4.395 11.4725 4.5 11.7875 4.5 12.125C4.5 12.8225 4.0575 13.4175 3.4375 13.6475C3.78 13.945 4 14.385 4 14.875C4 15.405 3.7425 15.875 3.35 16.1725C3.8825 16.44 4.25 16.99 4.25 17.625C4.25 18.115 4.03 18.555 3.6875 18.8525C4.3075 19.0825 4.75 19.6775 4.75 20.375C4.75 20.7125 4.645 21.0275 4.47 21.2875C5.2 21.445 5.75 22.0975 5.75 22.875C5.75 23.0975 5.705 23.3075 5.625 23.5C6.52 23.5 7.25 24.23 7.25 25.125C7.25 25.215 7.24 25.3 7.2275 25.385C7.425 25.3 7.645 25.25 7.875 25.25C8.5725 25.25 9.1675 25.6925 9.3975 26.3125C9.695 25.97 10.135 25.75 10.625 25.75C11.065 25.75 11.465 25.9275 11.7575 26.2125L11.7825 26.05C11.9325 25.31 12.59 24.75 13.375 24.75C13.8425 24.75 14.265 24.9475 14.56 25.2675C14.8325 25.555 15 25.9475 15 26.375C15 27.27 14.27 28 13.375 28C12.935 28 12.535 27.8225 12.2425 27.5375C12.16 28.3575 11.465 29 10.625 29C9.9275 29 9.3325 28.5575 9.1025 27.9375C8.805 28.28 8.365 28.5 7.875 28.5C6.98 28.5 6.25 27.77 6.25 26.875C6.25 26.785 6.26 26.7 6.2725 26.615C6.075 26.7 5.855 26.75 5.625 26.75C4.73 26.75 4 26.02 4 25.125C4 24.9025 4.045 24.6925 4.125 24.5C3.23 24.5 2.5 23.77 2.5 22.875C2.5 22.5375 2.605 22.2225 2.78 21.9625C2.05 21.805 1.5 21.1525 1.5 20.375C1.5 19.885 1.72 19.445 2.0625 19.1475C1.4425 18.9175 1 18.3225 1 17.625C1 17.095 1.2575 16.625 1.65 16.3275C1.1175 16.06 0.75 15.51 0.75 14.875C0.75 14.1775 1.1925 13.5825 1.8125 13.3525C1.47 13.055 1.25 12.615 1.25 12.125C1.25 11.3475 1.8 10.695 2.5325 10.5375C2.355 10.2775 2.25 9.9625 2.25 9.625C2.25 9.1775 2.4325 8.77 2.7275 8.4775C3.02 8.1825 3.4275 8 3.875 8C3.795 7.8075 3.75 7.5975 3.75 7.375C3.75 6.48 4.48 5.75 5.375 5.75C5.7125 5.75 6.0275 5.855 6.2875 6.03C6.445 5.3 7.0975 4.75 7.875 4.75C8.455 4.75 8.9625 5.055 9.25 5.5125C9.5375 5.055 10.045 4.75 10.625 4.75C11.3925 4.75 12.035 5.285 12.205 6C12.5 5.6925 12.915 5.5 13.375 5.5C14.27 5.5 15 6.23 15 7.125C15 7.355 14.95 7.575 14.865 7.7725C14.95 7.76 15.035 7.75 15.125 7.75C16.02 7.75 16.75 8.48 16.75 9.375C16.75 9.9525 16.445 10.4625 15.985 10.75C16.445 11.0375 16.75 11.5475 16.75 12.125Z" fill="#924A56"/>
<path d="M14.56 25.2675C14.485 25.31 12.9575 26.135 11.7575 26.2125L11.7825 26.05C11.9325 25.31 12.59 24.75 13.375 24.75C13.8425 24.75 14.265 24.9475 14.56 25.2675Z" fill="#723B47"/>
<path d="M28.434 17.8847L24.7275 16.7442L20.1482 12.394C19.448 11.7287 18.4585 11.4632 17.5192 11.6887L13.053 12.7607C12.4847 12.897 12.2175 13.5502 12.5272 14.0457L12.761 14.4197C13.1172 14.99 13.707 15.3737 14.3727 15.4687L17.3147 15.889C17.4857 16.4932 17.9187 17.6937 19.0255 18.7402C19.6407 19.3217 20.269 19.6715 20.7362 19.8807" fill="#282E29"/>
<path d="M14.5975 15.5013C14.646 15.6238 14.6717 15.755 14.6717 15.8863C14.6717 16.0745 14.6205 16.2625 14.515 16.4338C14.0132 17.235 12.9582 17.48 12.157 16.9783C11.316 16.4508 10.4747 15.9263 9.631 15.3988C9.22625 15.145 8.998 14.6775 9.06925 14.2043C9.10925 13.939 9.189 13.6368 9.3315 13.3233C9.33425 13.3175 9.33725 13.3118 9.34 13.3063C9.6535 12.6278 10.5232 12.4195 11.1332 12.85L12.4135 13.7538" fill="#282E29"/>
<path d="M27.8225 26.915L25.48 25.93L23.3025 25.0125C22.3475 25.3075 20.9725 25.605 19.31 25.5825C17.6975 25.56 16.335 25.235 15.3 24.8825H15.295L13.1475 21.8025L12.8225 18.4625L12.0575 16.2825L13.485 15.145C13.195 14.9625 12.945 14.7175 12.76 14.42L12.5275 14.045C12.2175 13.55 12.485 12.8975 13.0525 12.76L17.52 11.6875C18.4575 11.4625 19.4475 11.7275 20.1475 12.395L24.7275 16.745L28.435 17.885C29.6175 21.02 27.8225 26.915 27.8225 26.915Z" fill="#282E29"/>
<path d="M25.4803 25.9307C25.3805 26.4782 25.3633 27.151 25.583 27.8637C25.7313 28.3427 25.9508 28.722 26.1533 29.0042C26.1533 29.0042 29.314 25.7182 28.697 24.1117C28.08 22.5052 25.4803 25.9307 25.4803 25.9307Z" fill="#C5C2FF"/>
<path d="M27.8225 26.915L25.48 25.93C29.135 21.7925 28.435 17.885 28.435 17.885C29.6175 21.02 27.8225 26.915 27.8225 26.915Z" fill="#282E29"/>
<path d="M31 31C29.3843 30.3348 27.7687 29.6695 26.153 29.0043C26.7412 28.1293 27.3763 26.9885 27.8638 25.583C28.986 22.346 28.7143 19.467 28.434 17.885L31 18.455V31Z" fill="#282E29"/>
<path d="M16.795 17.125C16.795 18.02 16.065 18.75 15.17 18.75C14.8125 18.75 14.48 18.6325 14.2125 18.435C13.8075 18.14 13.545 17.6625 13.545 17.125C13.545 16.23 14.275 15.5 15.17 15.5C15.63 15.5 16.0475 15.6925 16.3425 16.005C16.6225 16.295 16.795 16.69 16.795 17.125Z" fill="#282E29"/>
<path d="M16.3425 16.005C16.285 16.0325 15.4625 16.4225 15.17 16.335C14.87 16.245 15.77 17.5125 14.2125 18.435C13.8075 18.14 13.545 17.6625 13.545 17.125C13.545 16.23 14.275 15.5 15.17 15.5C15.63 15.5 16.0475 15.6925 16.3425 16.005Z" fill="#723B47"/>
<path d="M15.0022 22.786L15.045 22.7975C15.293 22.863 15.504 23.0057 15.6522 23.1995C15.8032 23.3935 15.889 23.6327 15.889 23.8895C15.889 24.5282 15.3645 25.0357 14.7257 25.0185C13.8732 24.9985 12.921 24.9157 11.8975 24.7277C11.0565 24.5737 10.2922 24.3742 9.6165 24.1575C9.45975 23.978 9.16025 23.593 9.04625 23.017C8.87525 22.1645 9.22575 21.4917 9.33125 21.3062" fill="#282E29"/>
<path d="M9.6165 18.74C9.484 18.877 9.14225 19.2672 9.04625 19.8805C8.9325 20.6075 9.24075 21.1565 9.33125 21.306C10.21 21.6055 11.1615 21.8957 12.1825 22.1612C13.1815 22.421 14.1338 22.6277 15.0295 22.7922C15.5135 22.9152 16.0143 22.641 16.17 22.1737C16.3315 21.6892 16.0808 21.1637 15.6028 20.9845L9.6165 18.74Z" fill="#FCAF9F"/>
<path d="M16.8275 20.0425C16.8275 20.1475 16.81 20.25 16.775 20.355C16.605 20.8725 16.0325 21.1475 15.5175 20.9525L15.2775 20.8625L9.6175 18.74C9.545 18.54 9.32 17.8375 9.6175 17.03C9.675 16.875 9.7425 16.735 9.82 16.6125V16.61C10.035 16.25 10.3 16.0225 10.445 15.91L12.83 17.2225H12.8325L16.335 19.2025C16.645 19.375 16.8275 19.705 16.8275 20.0425Z" fill="#FCAF9F"/>
<path d="M14.6725 15.885C14.6725 16.075 14.62 16.2625 14.515 16.4325C14.2625 16.835 13.8725 17.0975 13.445 17.195H13.4425C13.0175 17.2925 12.555 17.2275 12.1575 16.9775C11.315 16.45 10.475 15.925 9.63 15.3975C9.225 15.145 8.9975 14.6775 9.07 14.205C9.11 13.94 9.19 13.64 9.3325 13.325C9.3325 13.3225 9.3325 13.3225 9.3325 13.3225C9.335 13.3175 9.3375 13.3125 9.34 13.305C9.6525 12.6275 10.5225 12.42 11.1325 12.85L12.4125 13.7525L14.5975 15.5C14.645 15.625 14.6725 15.755 14.6725 15.885Z" fill="#FCAF9F"/>
<path d="M19.67 2.66749C19.3875 3.55749 18.8775 4.32499 18.1925 4.88999C17.995 5.05499 17.7775 5.20249 17.5525 5.33249C17.3425 5.45249 17.105 5.50999 16.865 5.50999C16.425 5.50999 15.965 5.31999 15.6075 4.96249C15.08 4.43499 14.92 3.69249 15.1775 3.12999C15.2175 3.04249 15.2675 2.95749 15.33 2.87999C15.455 2.71999 15.5875 2.56249 15.7275 2.40749C16.3 1.77499 16.9675 1.22999 17.7125 0.78499C17.8125 0.72749 17.9375 0.74249 18.0175 0.82249L19.61 2.41499C19.675 2.47999 19.7 2.57749 19.67 2.66749Z" fill="#282E29"/>
<path d="M19.67 2.66748C19.3875 3.55748 18.8775 4.32498 18.1925 4.88998C17.995 5.05498 17.7775 5.20248 17.5525 5.33248C17.3425 5.45248 17.105 5.50998 16.865 5.50998C16.425 5.50998 15.965 5.31998 15.6075 4.96248C15.08 4.43498 14.92 3.69248 15.1775 3.12998C15.1775 3.12998 17.4725 5.97748 19.67 2.66748Z" fill="#282E29"/>
<path d="M17.1558 1.75022L17.71 1.26747C17.7642 1.22022 17.8443 1.21747 17.9018 1.26097L18.3218 1.58022C18.4278 1.66072 18.3863 1.82872 18.255 1.85097L17.2808 2.01472C17.1295 2.03997 17.0403 1.85097 17.1558 1.75022Z" fill="#FFF7E1"/>
<path d="M10.4203 6.67122C10.8498 6.67122 11.198 6.32301 11.198 5.89347C11.198 5.46393 10.8498 5.11572 10.4203 5.11572C9.99071 5.11572 9.6425 5.46393 9.6425 5.89347C9.6425 6.32301 9.99071 6.67122 10.4203 6.67122Z" fill="#BE7B85"/>
<path d="M13.599 7.35326C13.9757 7.35326 14.281 7.04792 14.281 6.67126C14.281 6.2946 13.9757 5.98926 13.599 5.98926C13.2223 5.98926 12.917 6.2946 12.917 6.67126C12.917 7.04792 13.2223 7.35326 13.599 7.35326Z" fill="#282E29"/>
<path d="M15.4263 9.47898C15.7431 9.47898 16 9.2221 16 8.90523C16 8.58836 15.7431 8.33148 15.4263 8.33148C15.1094 8.33148 14.8525 8.58836 14.8525 8.90523C14.8525 9.2221 15.1094 9.47898 15.4263 9.47898Z" fill="#BE7B85"/>
<path d="M7.835 6.76699C8.26454 6.76699 8.61275 6.41878 8.61275 5.98924C8.61275 5.5597 8.26454 5.21149 7.835 5.21149C7.40546 5.21149 7.05725 5.5597 7.05725 5.98924C7.05725 6.41878 7.40546 6.76699 7.835 6.76699Z" fill="#BE7B85"/>
<path d="M5.25 7.78572C5.67954 7.78572 6.02775 7.43751 6.02775 7.00797C6.02775 6.57844 5.67954 6.23022 5.25 6.23022C4.82046 6.23022 4.47225 6.57844 4.47225 7.00797C4.47225 7.43751 4.82046 7.78572 5.25 7.78572Z" fill="#BE7B85"/>
<path d="M3.5595 10.0078C3.98904 10.0078 4.33725 9.65956 4.33725 9.23002C4.33725 8.80048 3.98904 8.45227 3.5595 8.45227C3.12996 8.45227 2.78175 8.80048 2.78175 9.23002C2.78175 9.65956 3.12996 10.0078 3.5595 10.0078Z" fill="#BE7B85"/>
<path d="M2.50525 12.575C2.93479 12.575 3.283 12.2268 3.283 11.7972C3.283 11.3677 2.93479 11.0195 2.50525 11.0195C2.07571 11.0195 1.7275 11.3677 1.7275 11.7972C1.7275 12.2268 2.07571 12.575 2.50525 12.575Z" fill="#BE7B85"/>
<path d="M2.00425 15.3908C2.43379 15.3908 2.782 15.0426 2.782 14.613C2.782 14.1835 2.43379 13.8353 2.00425 13.8353C1.57471 13.8353 1.2265 14.1835 1.2265 14.613C1.2265 15.0426 1.57471 15.3908 2.00425 15.3908Z" fill="#BE7B85"/>
<path d="M2.217 18.089C2.6047 18.089 2.919 17.7747 2.919 17.387C2.919 16.9993 2.6047 16.685 2.217 16.685C1.8293 16.685 1.515 16.9993 1.515 17.387C1.515 17.7747 1.8293 18.089 2.217 18.089Z" fill="#BE7B85"/>
<path d="M2.68325 20.84C3.05825 20.84 3.36225 20.536 3.36225 20.161C3.36225 19.786 3.05825 19.482 2.68325 19.482C2.30825 19.482 2.00425 19.786 2.00425 20.161C2.00425 20.536 2.30825 20.84 2.68325 20.84Z" fill="#BE7B85"/>
<path d="M3.5595 23.2872C3.87154 23.2872 4.1245 23.0343 4.1245 22.7222C4.1245 22.4102 3.87154 22.1572 3.5595 22.1572C3.24746 22.1572 2.9945 22.4102 2.9945 22.7222C2.9945 23.0343 3.24746 23.2872 3.5595 23.2872Z" fill="#BE7B85"/>
<path d="M5.02775 25.4183C5.24839 25.4183 5.42725 25.2394 5.42725 25.0188C5.42725 24.7981 5.24839 24.6193 5.02775 24.6193C4.80711 24.6193 4.62825 24.7981 4.62825 25.0188C4.62825 25.2394 4.80711 25.4183 5.02775 25.4183Z" fill="#BE7B85"/>
<path d="M7.19775 27.2587C7.35377 27.2587 7.48025 27.1322 7.48025 26.9762C7.48025 26.8202 7.35377 26.6937 7.19775 26.6937C7.04173 26.6937 6.91525 26.8202 6.91525 26.9762C6.91525 27.1322 7.04173 27.2587 7.19775 27.2587Z" fill="#BE7B85"/>
<path d="M20.8383 19.6525C20.228 19.3792 19.676 19.011 19.1973 18.5585C18.221 17.6352 17.7662 16.5637 17.5565 15.8255V15.825C17.556 15.8237 17.5555 15.8222 17.5553 15.8207C17.5528 15.812 17.5465 15.8057 17.5432 15.7977C17.5345 15.776 17.5257 15.7542 17.5112 15.736C17.5027 15.725 17.4913 15.718 17.481 15.7087C17.4673 15.6962 17.455 15.6825 17.4387 15.6732C17.4227 15.664 17.4045 15.6602 17.3867 15.6547C17.3742 15.6507 17.3635 15.6437 17.35 15.6417L14.408 15.2215C13.8142 15.1367 13.291 14.796 12.973 14.2872L12.7392 13.913C12.6347 13.746 12.6177 13.5455 12.6922 13.363C12.7667 13.1807 12.9195 13.0495 13.1112 13.0035L15.9473 12.3227C16.0815 12.2905 16.1642 12.1557 16.132 12.0212C16.0998 11.887 15.9647 11.8042 15.8305 11.8365L12.9947 12.5175C12.6447 12.6015 12.3657 12.8407 12.2295 13.1737C12.214 13.212 12.201 13.2505 12.1897 13.2895L11.2772 12.6455C10.9177 12.3915 10.4672 12.3117 10.0402 12.4257C9.62775 12.5362 9.2895 12.8187 9.10375 13.2195C8.96525 13.5237 8.8705 13.8425 8.82175 14.1667C8.7365 14.733 9.002 15.2997 9.49825 15.6105L10.0295 15.9425C9.79225 16.1762 9.542 16.5035 9.38175 16.9432C9.1205 17.6545 9.22 18.2947 9.3345 18.6807C9.13925 18.912 8.8835 19.3032 8.799 19.8417C8.69875 20.4832 8.8855 21.0017 9.04675 21.3095C8.88175 21.6422 8.64575 22.2905 8.801 23.0652C8.8925 23.5267 9.1035 23.9495 9.42825 24.3212C9.458 24.3555 9.49675 24.381 9.54 24.3947C10.2855 24.634 11.0635 24.8285 11.8522 24.9727C12.7947 25.146 13.7595 25.2452 14.7192 25.2675C14.732 25.2677 14.745 25.268 14.7575 25.268C15.121 25.268 15.4625 25.1297 15.7227 24.8765C15.991 24.6152 16.1388 24.2645 16.1388 23.8885C16.1388 23.5795 16.0387 23.2877 15.851 23.0467C15.8262 23.0145 15.7973 22.987 15.77 22.9572C16.0618 22.8225 16.2992 22.5755 16.407 22.2522C16.5305 21.8812 16.4625 21.4955 16.2577 21.1967C16.3002 21.1817 16.3425 21.1647 16.3838 21.1447C16.6853 21.0005 16.9088 20.7472 17.0128 20.4317C17.0553 20.304 17.0767 20.173 17.0767 20.042C17.0767 19.603 16.8388 19.1972 16.4568 18.9832L13.6485 17.3962C14.0958 17.2567 14.4752 16.9667 14.7275 16.5637C14.8545 16.3577 14.9215 16.123 14.9215 15.8852C14.9215 15.8557 14.9152 15.827 14.9132 15.7977L17.1227 16.1135C17.367 16.9032 17.8585 17.9805 18.8535 18.921C19.373 19.4122 19.9722 19.8115 20.6335 20.108C20.6667 20.123 20.7013 20.13 20.7355 20.13C20.8313 20.13 20.9223 20.075 20.964 19.982C21.0205 19.8567 20.964 19.7087 20.8383 19.6525ZM15.374 24.519C15.202 24.6862 14.974 24.7725 14.7317 24.7685C13.7977 24.7467 12.8592 24.6502 11.9425 24.4817C11.1987 24.3455 10.465 24.1635 9.7605 23.9407C9.51925 23.6487 9.3615 23.3217 9.29125 22.9675C9.1755 22.3895 9.3275 21.8995 9.458 21.6112C10.334 21.9045 11.228 22.1715 12.1197 22.4035C13.0605 22.6482 14.0217 22.8612 14.9605 23.0335L14.9812 23.039C15.1732 23.0897 15.3365 23.1977 15.4552 23.353C15.5755 23.5072 15.639 23.6925 15.639 23.8892C15.639 24.129 15.545 24.3527 15.374 24.519ZM15.9327 22.095C15.8175 22.44 15.4493 22.6395 15.0775 22.547L15.066 22.544C15.064 22.5435 15.0623 22.544 15.0603 22.5437C14.1192 22.3705 13.1722 22.1605 12.2452 21.9195C11.3252 21.6802 10.4027 21.4047 9.501 21.0997C9.3845 20.8827 9.2095 20.4502 9.29275 19.9192C9.3555 19.519 9.539 19.2205 9.68925 19.0345L9.80925 19.0795L15.5142 21.219C15.8687 21.3515 16.0522 21.7365 15.9327 22.095ZM16.577 20.043C16.577 20.1212 16.5642 20.197 16.5382 20.2755C16.4773 20.461 16.3458 20.6095 16.1685 20.6945C15.9908 20.7795 15.791 20.7882 15.606 20.7185L10.6475 18.8595L9.8165 18.548C9.7215 18.2322 9.636 17.702 9.8515 17.115C10.002 16.7025 10.2502 16.4102 10.468 16.2165C10.987 16.5407 11.5057 16.8647 12.024 17.19C12.2475 17.33 12.4922 17.4192 12.7447 17.4607L16.2118 19.42C16.437 19.5462 16.577 19.785 16.577 20.043ZM14.4217 15.886C14.4217 16.0312 14.3802 16.1752 14.3027 16.3007C14.0955 16.632 13.7717 16.8627 13.3915 16.9507C13.0118 17.0392 12.62 16.9732 12.2895 16.7662C11.6897 16.39 11.0897 16.0152 10.489 15.64L9.76375 15.1867C9.43625 14.9817 9.26075 14.6107 9.3165 14.2412C9.35825 13.9627 9.43975 13.6887 9.554 13.4367C9.5555 13.434 9.5655 13.414 9.56675 13.4107C9.681 13.1637 9.901 12.9807 10.1697 12.9087C10.4525 12.8325 10.7512 12.886 10.989 13.054L12.1927 13.9037C12.221 13.9985 12.261 14.091 12.3155 14.178L12.5492 14.5522C12.9455 15.1862 13.5972 15.6105 14.3372 15.7162L14.4037 15.7257C14.4148 15.779 14.4217 15.833 14.4217 15.886Z" fill="#FA847A"/>
</svg>
