<?xml version="1.0" encoding="UTF-8" standalone="no"?>
<!-- Created with Inkscape (http://www.inkscape.org/) -->

<svg
   version="1.1"
   id="svg1"
   width="38"
   height="38"
   viewBox="0 0 38 38"
   sodipodi:docname="book.svg"
   inkscape:version="1.2.2 (732a01da63, 2022-12-09)"
   xmlns:inkscape="http://www.inkscape.org/namespaces/inkscape"
   xmlns:sodipodi="http://sodipodi.sourceforge.net/DTD/sodipodi-0.dtd"
   xmlns="http://www.w3.org/2000/svg"
   xmlns:svg="http://www.w3.org/2000/svg">
  <defs
     id="defs1">
    <clipPath
       id="clip4_1_586">
      <rect
         width="20"
         height="20"
         fill="#ffffff"
         transform="translate(46,648.5)"
         id="rect134"
         x="0"
         y="0" />
    </clipPath>
    <mask
       id="mask4_1_586"
       maskUnits="userSpaceOnUse"
       x="46"
       y="648"
       width="20"
       height="21">
      <path
         d="M 66,648.5 H 46 v 20 h 20 z"
         fill="#ffffff"
         id="path76" />
    </mask>
  </defs>
  <sodipodi:namedview
     id="namedview1"
     pagecolor="#ffffff"
     bordercolor="#cccccc"
     borderopacity="1"
     inkscape:showpageshadow="0"
     inkscape:pageopacity="1"
     inkscape:pagecheckerboard="0"
     inkscape:deskcolor="#d1d1d1"
     showgrid="false"
     inkscape:zoom="1.3775"
     inkscape:cx="120.14519"
     inkscape:cy="-10.163339"
     inkscape:window-width="1366"
     inkscape:window-height="705"
     inkscape:window-x="-8"
     inkscape:window-y="32"
     inkscape:window-maximized="1"
     inkscape:current-layer="g1" />
  <g
     inkscape:groupmode="layer"
     inkscape:label="Image"
     id="g1"
     transform="translate(-266.29946,-209.67514)">
    <g
       id="g1034"
       transform="translate(229.29946,-429.82486)">
      <circle
         cx="56"
         cy="658.5"
         r="19"
         fill="#e8f0f5"
         id="circle74" />
      <g
         clip-path="url(#clip4_1_586)"
         id="g83">
        <mask
           id="mask1051"
           maskUnits="userSpaceOnUse"
           x="46"
           y="648"
           width="20"
           height="21">
          <path
             d="M 66,648.5 H 46 v 20 h 20 z"
             fill="#ffffff"
             id="path1049" />
        </mask>
        <g
           mask="url(#mask4_1_586)"
           id="g81">
          <path
             d="m 64.5,650.305 c -0.4685,-0.392 -1.0174,-0.676 -1.6079,-0.831 -0.5905,-0.156 -1.2081,-0.18 -1.8088,-0.07 l -3.185,0.578 c -0.7353,0.135 -1.4039,0.514 -1.8983,1.074 -0.4957,-0.561 -1.1662,-0.94 -1.9033,-1.074 l -3.18,-0.578 c -0.6007,-0.11 -1.2183,-0.086 -1.8089,0.069 -0.5906,0.155 -1.1399,0.438 -1.609,0.829 -0.4691,0.391 -0.8465,0.88 -1.1055,1.433 C 46.1343,652.288 46,652.892 46,653.502 v 8.995 c 0,0.975 0.3425,1.92 0.9676,2.669 0.6251,0.749 1.4933,1.255 2.4532,1.43 l 5.2384,0.952 c 0.8866,0.161 1.795,0.161 2.6816,0 l 5.2425,-0.952 c 0.9592,-0.176 1.8264,-0.682 2.4507,-1.431 0.6243,-0.749 0.9661,-1.693 0.966,-2.668 v -8.995 c 4e-4,-0.61 -0.1338,-1.213 -0.3931,-1.766 -0.2593,-0.553 -0.6372,-1.041 -1.1069,-1.431 z m -9.3333,15.637 c -0.07,-0.01 -0.14,-0.021 -0.21,-0.034 l -5.2375,-0.952 c -0.5761,-0.104 -1.097,-0.408 -1.4721,-0.857 -0.3751,-0.45 -0.5805,-1.017 -0.5804,-1.602 v -8.995 c 0,-0.663 0.2634,-1.299 0.7322,-1.767 0.4688,-0.469 1.1047,-0.733 1.7678,-0.733 0.1509,0.001 0.3015,0.014 0.45,0.041 l 3.1833,0.583 c 0.383,0.071 0.7294,0.273 0.979,0.571 0.2497,0.299 0.3868,0.676 0.3877,1.065 z m 9.1666,-3.445 c 1e-4,0.585 -0.2053,1.152 -0.5804,1.602 -0.3751,0.449 -0.896,0.753 -1.4721,0.857 l -5.2375,0.952 c -0.07,0.013 -0.14,0.024 -0.21,0.034 v -12.68 c 0,-0.39 0.1369,-0.768 0.387,-1.068 0.25,-0.299 0.5973,-0.502 0.9814,-0.572 l 3.1841,-0.583 c 0.3606,-0.066 0.7312,-0.051 1.0856,0.042 0.3544,0.094 0.6839,0.264 0.9651,0.499 0.2813,0.235 0.5074,0.529 0.6623,0.862 0.155,0.332 0.2351,0.694 0.2345,1.06 z"
             fill="#868686"
             id="path79" />
        </g>
      </g>
    </g>
  </g>
</svg>
